<svg width="166" height="168" viewBox="0 0 166 168" fill="none" xmlns="http://www.w3.org/2000/svg">
<rect x="20.9494" y="54.4813" width="136.116" height="16.4856" transform="rotate(9.46961 20.9494 54.4813)" fill="#F2C46F" stroke="black" stroke-width="2.5"/>
<rect x="19.4352" y="36.5113" width="136.116" height="16.4856" transform="rotate(-5.53039 19.4352 36.5113)" fill="#F2C46F" stroke="black" stroke-width="2.5"/>
<rect x="23.5913" y="73.1478" width="124.762" height="72.2485" transform="rotate(9.46961 23.5913 73.1478)" fill="#1A2C50" stroke="black" stroke-width="2.5"/>
<rect x="34.634" y="84.5822" width="99.2148" height="26.3586" transform="rotate(9.46961 34.634 84.5822)" fill="#F2C46F" stroke="black" stroke-width="2.5"/>
<rect x="30.1196" y="111.648" width="49.067" height="26.3586" transform="rotate(9.46961 30.1196 111.648)" fill="#F2C46F" stroke="black" stroke-width="2.5"/>
<rect x="79.584" y="119.898" width="49.067" height="26.3586" transform="rotate(9.46961 79.584 119.898)" fill="#F2C46F" stroke="black" stroke-width="2.5"/>
<circle cx="25.0929" cy="63.7375" r="2.3251" transform="rotate(9.46961 25.0929 63.7375)" fill="#1A2C50" stroke="black" stroke-width="1.5"/>
<circle cx="25.8332" cy="44.3798" r="2.3251" transform="rotate(-5.53039 25.8332 44.3798)" fill="#1A2C50" stroke="black" stroke-width="1.5"/>
<path d="M150.038 75.2253L137.748 91.4011" stroke="black" stroke-width="2.5"/>
<path d="M150.58 23.0097L142.926 41.8282" stroke="black" stroke-width="2.5"/>
<path d="M138.839 73.3573L126.548 89.5331" stroke="black" stroke-width="2.5"/>
<path d="M139.281 24.1229L131.627 42.9413" stroke="black" stroke-width="2.5"/>
<path d="M127.639 71.4892L115.349 87.665" stroke="black" stroke-width="2.5"/>
<path d="M127.981 25.2359L120.328 44.0544" stroke="black" stroke-width="2.5"/>
<path d="M116.44 69.6212L104.149 85.797" stroke="black" stroke-width="2.5"/>
<path d="M116.681 26.3489L109.027 45.1673" stroke="black" stroke-width="2.5"/>
<path d="M105.24 67.7531L92.9497 83.9289" stroke="black" stroke-width="2.5"/>
<path d="M105.382 27.462L97.7282 46.2805" stroke="black" stroke-width="2.5"/>
<path d="M94.0407 65.8851L81.75 82.0609" stroke="black" stroke-width="2.5"/>
<path d="M94.0828 28.5751L86.4289 47.3936" stroke="black" stroke-width="2.5"/>
<path d="M82.8412 64.0171L70.5506 80.1929" stroke="black" stroke-width="2.5"/>
<path d="M82.7832 29.6882L75.1293 48.5066" stroke="black" stroke-width="2.5"/>
<path d="M71.6417 62.149L59.3511 78.3248" stroke="black" stroke-width="2.5"/>
<path d="M71.4839 30.8013L63.83 49.6197" stroke="black" stroke-width="2.5"/>
<path d="M60.4425 60.281L48.1519 76.4568" stroke="black" stroke-width="2.5"/>
<path d="M60.1841 31.9142L52.5302 50.7327" stroke="black" stroke-width="2.5"/>
<path d="M49.2428 58.4129L36.9522 74.5887" stroke="black" stroke-width="2.5"/>
<path d="M48.8843 33.0273L41.2304 51.8457" stroke="black" stroke-width="2.5"/>
</svg>
